<svg width="40px" height="16px" viewBox="0 0 40 16" version="1.1" xmlns="http://www.w3.org/2000/svg" xmlns:xlink="http://www.w3.org/1999/xlink">
  <g stroke="none" stroke-width="1" fill="none" fill-rule="evenodd">
    <rect stroke="#333333" stroke-width="2" x="1" y="1" width="38" height="14" rx="7"></rect>
    <path d="M28,10 C29.2105263,10 30,9.13924051 30,8 C30,6.81012658 29.1842105,6 28,6 C26.8421053,6 26,6.83544304 26,8 C26,9.13924051 26.8157895,10 27.9736842,10 L28,10 Z" fill="#333333"></path>
    <path d="M20,10 C21.2105263,10 22,9.13924051 22,8 C22,6.81012658 21.1842105,6 20,6 C18.8421053,6 18,6.83544304 18,8 C18,9.13924051 18.8157895,10 19.9736842,10 L20,10 Z" fill="#333333"></path>
    <path d="M12,10 C13.2105263,10 14,9.13924051 14,8 C14,6.81012658 13.1842105,6 12,6 C10.8421053,6 10,6.83544304 10,8 C10,9.13924051 10.8157895,10 11.9736842,10 L12,10 Z" fill="#333333"></path>
  </g>
</svg>
