<svg xmlns="http://www.w3.org/2000/svg" width="19" height="18" viewBox="0 0 19 18">
  <path d="M10.908 7.996h7.14a.428.428 0 0 0 .428-.428V.428A.428.428 0 0 0 18.048 0h-1.71a.428.428 0 0 0-.428.428v2.784A8.817 8.817 0 0 0 9.274.285 8.819 8.819 0 0 0 .5 9.144a8.84 8.84 0 0 0 14.775 6.532.429.429 0 0 0 .016-.621l-1.21-1.211a.427.427 0 0 0-.585-.019 6.25 6.25 0 0 1-4.156 1.573 6.27 6.27 0 0 1-6.274-6.273A6.27 6.27 0 0 1 9.34 2.85a6.262 6.262 0 0 1 5.07 2.579h-3.502a.428.428 0 0 0-.428.427v1.711c0 .237.192.428.428.428z"/>
</svg>
