<svg xmlns="http://www.w3.org/2000/svg" width="19" height="21" viewBox="0 0 19 21">
  <path d="M1.786 18.643c0 1.065.863 1.928 1.928 1.928h11.572a1.929 1.929 0 0 0 1.928-1.928v-13.5H1.786v13.5zM12.714 8.357a.643.643 0 0 1 1.286 0v9a.643.643 0 0 1-1.286 0v-9zm-3.857 0a.643.643 0 0 1 1.286 0v9a.643.643 0 0 1-1.286 0v-9zM5 8.357a.643.643 0 0 1 1.286 0v9a.643.643 0 0 1-1.286 0v-9zm12.857-7.071h-4.821l-.378-.752A.964.964 0 0 0 11.794 0H7.202a.953.953 0 0 0-.86.534l-.378.752H1.143a.643.643 0 0 0-.643.643v1.285c0 .355.288.643.643.643h16.714a.643.643 0 0 0 .643-.643V1.93a.643.643 0 0 0-.643-.643z"/>
</svg>
