<svg xmlns="http://www.w3.org/2000/svg" width="19" height="15" viewBox="0 0 19 15">
  <path d="M16.65 3.67c.011.161.011.322.011.484 0 4.912-3.712 10.573-10.496 10.573-2.09 0-4.032-.61-5.665-1.668.297.034.582.046.89.046a7.354 7.354 0 0 0 4.58-1.588A3.7 3.7 0 0 1 2.523 8.94c.228.034.456.057.696.057.332 0 .663-.046.971-.126a3.71 3.71 0 0 1-2.958-3.647v-.046a3.695 3.695 0 0 0 1.667.471 3.72 3.72 0 0 1-1.644-3.095c0-.69.182-1.323.502-1.875a10.46 10.46 0 0 0 7.607 3.889 4.225 4.225 0 0 1-.091-.852C9.272 1.668 10.916 0 12.96 0c1.062 0 2.021.449 2.695 1.174a7.23 7.23 0 0 0 2.341-.898 3.701 3.701 0 0 1-1.621 2.048A7.353 7.353 0 0 0 18.5 1.75a7.962 7.962 0 0 1-1.85 1.921z"/>
</svg>
