<svg xmlns="http://www.w3.org/2000/svg" width="19" height="18" viewBox="0 0 19 18">
  <path d="M8.068 7.996H.928A.428.428 0 0 1 .5 7.568V.428C.5.192.692 0 .928 0h1.71c.237 0 .428.192.428.428v2.784A8.817 8.817 0 0 1 9.702.285a8.819 8.819 0 0 1 8.774 8.859 8.84 8.84 0 0 1-14.774 6.532.429.429 0 0 1-.017-.621l1.21-1.211a.427.427 0 0 1 .585-.019 6.25 6.25 0 0 0 4.157 1.573 6.27 6.27 0 0 0 6.273-6.273A6.27 6.27 0 0 0 9.637 2.85a6.262 6.262 0 0 0-5.072 2.58h3.503c.237 0 .428.191.428.427v1.711a.428.428 0 0 1-.428.428z"/>
</svg>
